<?xml version="1.0" encoding="UTF-8" standalone="no"?>
<!DOCTYPE svg PUBLIC "-//W3C//DTD SVG 1.1//EN"
 "http://www.w3.org/Graphics/SVG/1.1/DTD/svg11.dtd">
<!-- Generated by graphviz version 2.50.0 (20211204.2007)
 -->
<!-- Title: dependency&#45;cruiser output Pages: 1 -->
<svg width="586pt" height="437pt"
 viewBox="0.00 0.00 586.00 437.32" xmlns="http://www.w3.org/2000/svg" xmlns:xlink="http://www.w3.org/1999/xlink">
<g id="graph0" class="graph" transform="scale(1 1) rotate(0) translate(4 433.32)">
<title>dependency&#45;cruiser output</title>
<polygon fill="white" stroke="transparent" points="-4,4 -4,-433.32 582,-433.32 582,4 -4,4"/>
<g id="clust1" class="cluster">
<title>cluster_src</title>
<path fill="#ffffff" stroke="black" stroke-width="2" d="M20,-9.32C20,-9.32 558,-9.32 558,-9.32 564,-9.32 570,-15.32 570,-21.32 570,-21.32 570,-409.32 570,-409.32 570,-415.32 564,-421.32 558,-421.32 558,-421.32 20,-421.32 20,-421.32 14,-421.32 8,-415.32 8,-409.32 8,-409.32 8,-21.32 8,-21.32 8,-15.32 14,-9.32 20,-9.32"/>
<text text-anchor="middle" x="289" y="-410.12" font-family="Helvetica,sans-Serif" font-weight="bold" font-size="9.00">src</text>
</g>
<g id="clust2" class="cluster">
<title>cluster_src/app</title>
<path fill="#ffffff" stroke="black" stroke-width="2" d="M105.5,-340.32C105.5,-340.32 151.5,-340.32 151.5,-340.32 157.5,-340.32 163.5,-346.32 163.5,-352.32 163.5,-352.32 163.5,-380.32 163.5,-380.32 163.5,-386.32 157.5,-392.32 151.5,-392.32 151.5,-392.32 105.5,-392.32 105.5,-392.32 99.5,-392.32 93.5,-386.32 93.5,-380.32 93.5,-380.32 93.5,-352.32 93.5,-352.32 93.5,-346.32 99.5,-340.32 105.5,-340.32"/>
<text text-anchor="middle" x="128.5" y="-381.12" font-family="Helvetica,sans-Serif" font-weight="bold" font-size="9.00">app</text>
</g>
<g id="clust3" class="cluster">
<title>cluster_src/components</title>
<path fill="#ffffff" stroke="black" stroke-width="2" d="M194,-243.32C194,-243.32 447,-243.32 447,-243.32 453,-243.32 459,-249.32 459,-255.32 459,-255.32 459,-343.32 459,-343.32 459,-349.32 453,-355.32 447,-355.32 447,-355.32 194,-355.32 194,-355.32 188,-355.32 182,-349.32 182,-343.32 182,-343.32 182,-255.32 182,-255.32 182,-249.32 188,-243.32 194,-243.32"/>
<text text-anchor="middle" x="320.5" y="-344.12" font-family="Helvetica,sans-Serif" font-weight="bold" font-size="9.00">components</text>
</g>
<g id="clust4" class="cluster">
<title>cluster_src/features</title>
<path fill="#ffffff" stroke="black" stroke-width="2" d="M479,-286.32C479,-286.32 550,-286.32 550,-286.32 556,-286.32 562,-292.32 562,-298.32 562,-298.32 562,-326.32 562,-326.32 562,-332.32 556,-338.32 550,-338.32 550,-338.32 479,-338.32 479,-338.32 473,-338.32 467,-332.32 467,-326.32 467,-326.32 467,-298.32 467,-298.32 467,-292.32 473,-286.32 479,-286.32"/>
<text text-anchor="middle" x="514.5" y="-327.12" font-family="Helvetica,sans-Serif" font-weight="bold" font-size="9.00">features</text>
</g>
<g id="clust5" class="cluster">
<title>cluster_src/images</title>
<path fill="#ffffff" stroke="black" stroke-width="2" d="M266,-27.32C266,-27.32 368,-27.32 368,-27.32 374,-27.32 380,-33.32 380,-39.32 380,-39.32 380,-217.32 380,-217.32 380,-223.32 374,-229.32 368,-229.32 368,-229.32 266,-229.32 266,-229.32 260,-229.32 254,-223.32 254,-217.32 254,-217.32 254,-39.32 254,-39.32 254,-33.32 260,-27.32 266,-27.32"/>
<text text-anchor="middle" x="317" y="-218.12" font-family="Helvetica,sans-Serif" font-weight="bold" font-size="9.00">images</text>
</g>
<!-- src/App.css -->
<g id="node1" class="node">
<title>src/App.css</title>
<g id="a_node1"><a xlink:href="src/App.css" xlink:title="App.css">
<path fill="#ffffcc" stroke="black" d="M239,-381.32C239,-381.32 197,-381.32 197,-381.32 194,-381.32 191,-378.32 191,-375.32 191,-375.32 191,-369.32 191,-369.32 191,-366.32 194,-363.32 197,-363.32 197,-363.32 239,-363.32 239,-363.32 242,-363.32 245,-366.32 245,-369.32 245,-369.32 245,-375.32 245,-375.32 245,-378.32 242,-381.32 239,-381.32"/>
<text text-anchor="start" x="201.5" y="-370.12" font-family="Helvetica,sans-Serif" font-size="9.00">App.css</text>
</a>
</g>
</g>
<!-- src/App.js -->
<g id="node2" class="node">
<title>src/App.js</title>
<g id="a_node2"><a xlink:href="src/App.js" xlink:title="App.js">
<path fill="#ffffcc" stroke="black" d="M149.5,-329.32C149.5,-329.32 107.5,-329.32 107.5,-329.32 104.5,-329.32 101.5,-326.32 101.5,-323.32 101.5,-323.32 101.5,-317.32 101.5,-317.32 101.5,-314.32 104.5,-311.32 107.5,-311.32 107.5,-311.32 149.5,-311.32 149.5,-311.32 152.5,-311.32 155.5,-314.32 155.5,-317.32 155.5,-317.32 155.5,-323.32 155.5,-323.32 155.5,-326.32 152.5,-329.32 149.5,-329.32"/>
<text text-anchor="start" x="115.5" y="-318.12" font-family="Helvetica,sans-Serif" font-size="9.00">App.js</text>
</a>
</g>
</g>
<!-- src/App.js&#45;&gt;src/App.css -->
<g id="edge1" class="edge">
<title>src/App.js&#45;&gt;src/App.css</title>
<path fill="none" stroke="#000000" stroke-width="2" stroke-opacity="0.200000" d="M155.66,-326.2C162.3,-328.72 168.97,-332.29 174,-337.32 181.06,-344.38 175,-351.2 182,-358.32 183.12,-359.46 184.35,-360.51 185.66,-361.48"/>
<polygon fill="#000000" fill-opacity="0.200000" stroke="#000000" stroke-width="2" stroke-opacity="0.200000" points="184.8,-363.42 191,-364.82 187.02,-359.86 184.8,-363.42"/>
</g>
<!-- src/components/Header.js -->
<g id="node3" class="node">
<title>src/components/Header.js</title>
<g id="a_node3"><a xlink:href="src/components/Header.js" xlink:title="Header.js">
<path fill="#ffffcc" stroke="black" d="M240,-269.32C240,-269.32 196,-269.32 196,-269.32 193,-269.32 190,-266.32 190,-263.32 190,-263.32 190,-257.32 190,-257.32 190,-254.32 193,-251.32 196,-251.32 196,-251.32 240,-251.32 240,-251.32 243,-251.32 246,-254.32 246,-257.32 246,-257.32 246,-263.32 246,-263.32 246,-266.32 243,-269.32 240,-269.32"/>
<text text-anchor="start" x="198" y="-258.12" font-family="Helvetica,sans-Serif" font-size="9.00">Header.js</text>
</a>
</g>
</g>
<!-- src/App.js&#45;&gt;src/components/Header.js -->
<g id="edge2" class="edge">
<title>src/App.js&#45;&gt;src/components/Header.js</title>
<path fill="none" stroke="#000000" stroke-width="2" stroke-opacity="0.200000" d="M155.5,-316.18C162.3,-313.96 169.09,-310.55 174,-305.32 183.44,-295.25 172.97,-285.75 182,-275.32 182.81,-274.38 183.69,-273.5 184.63,-272.67"/>
<polygon fill="#000000" fill-opacity="0.200000" stroke="#000000" stroke-width="2" stroke-opacity="0.200000" points="186.08,-274.21 189.69,-268.97 183.6,-270.82 186.08,-274.21"/>
</g>
<!-- src/components/Hero.js -->
<g id="node4" class="node">
<title>src/components/Hero.js</title>
<g id="a_node4"><a xlink:href="src/components/Hero.js" xlink:title="Hero.js">
<path fill="#ffffcc" stroke="black" d="M239,-299.32C239,-299.32 197,-299.32 197,-299.32 194,-299.32 191,-296.32 191,-293.32 191,-293.32 191,-287.32 191,-287.32 191,-284.32 194,-281.32 197,-281.32 197,-281.32 239,-281.32 239,-281.32 242,-281.32 245,-284.32 245,-287.32 245,-287.32 245,-293.32 245,-293.32 245,-296.32 242,-299.32 239,-299.32"/>
<text text-anchor="start" x="203" y="-288.12" font-family="Helvetica,sans-Serif" font-size="9.00">Hero.js</text>
</a>
</g>
</g>
<!-- src/App.js&#45;&gt;src/components/Hero.js -->
<g id="edge3" class="edge">
<title>src/App.js&#45;&gt;src/components/Hero.js</title>
<path fill="none" stroke="#000000" stroke-width="2" stroke-opacity="0.200000" d="M155.87,-311.48C161.84,-309.47 168.14,-307.33 174,-305.32 177.63,-304.07 181.43,-302.76 185.21,-301.45"/>
<polygon fill="#000000" fill-opacity="0.200000" stroke="#000000" stroke-width="2" stroke-opacity="0.200000" points="186.12,-303.36 191.09,-299.41 184.74,-299.39 186.12,-303.36"/>
</g>
<!-- src/components/Home.js -->
<g id="node5" class="node">
<title>src/components/Home.js</title>
<g id="a_node5"><a xlink:href="src/components/Home.js" xlink:title="Home.js">
<path fill="#ffffcc" stroke="black" d="M239,-329.32C239,-329.32 197,-329.32 197,-329.32 194,-329.32 191,-326.32 191,-323.32 191,-323.32 191,-317.32 191,-317.32 191,-314.32 194,-311.32 197,-311.32 197,-311.32 239,-311.32 239,-311.32 242,-311.32 245,-314.32 245,-317.32 245,-317.32 245,-323.32 245,-323.32 245,-326.32 242,-329.32 239,-329.32"/>
<text text-anchor="start" x="201" y="-318.12" font-family="Helvetica,sans-Serif" font-size="9.00">Home.js</text>
</a>
</g>
</g>
<!-- src/App.js&#45;&gt;src/components/Home.js -->
<g id="edge4" class="edge">
<title>src/App.js&#45;&gt;src/components/Home.js</title>
<path fill="none" stroke="#000000" stroke-width="2" stroke-opacity="0.200000" d="M155.75,-320.32C164.84,-320.32 175.13,-320.32 184.64,-320.32"/>
<polygon fill="#000000" fill-opacity="0.200000" stroke="#000000" stroke-width="2" stroke-opacity="0.200000" points="184.77,-322.42 190.77,-320.32 184.77,-318.22 184.77,-322.42"/>
</g>
<!-- src/firebase.js -->
<g id="node10" class="node">
<title>src/firebase.js</title>
<g id="a_node10"><a xlink:href="src/firebase.js" xlink:title="firebase.js">
<path fill="#ffffcc" stroke="black" d="M538,-254.32C538,-254.32 491,-254.32 491,-254.32 488,-254.32 485,-251.32 485,-248.32 485,-248.32 485,-242.32 485,-242.32 485,-239.32 488,-236.32 491,-236.32 491,-236.32 538,-236.32 538,-236.32 541,-236.32 544,-239.32 544,-242.32 544,-242.32 544,-248.32 544,-248.32 544,-251.32 541,-254.32 538,-254.32"/>
<text text-anchor="start" x="493" y="-243.12" font-family="Helvetica,sans-Serif" font-size="9.00">firebase.js</text>
</a>
</g>
</g>
<!-- src/components/Header.js&#45;&gt;src/firebase.js -->
<g id="edge10" class="edge">
<title>src/components/Header.js&#45;&gt;src/firebase.js</title>
<path fill="none" stroke="#000000" stroke-width="2" stroke-opacity="0.200000" d="M218.85,-251.07C218.43,-211.17 219.03,-54.49 254,-24.32 296.4,12.26 331.23,3.2 380,-24.32 461.53,-70.32 498.88,-188.33 509.88,-230.26"/>
<polygon fill="#000000" fill-opacity="0.200000" stroke="#000000" stroke-width="2" stroke-opacity="0.200000" points="507.9,-231.02 511.42,-236.31 511.97,-229.98 507.9,-231.02"/>
</g>
<!-- src/images/Discord&#45;logo&#45;white.svg -->
<g id="node12" class="node">
<title>src/images/Discord&#45;logo&#45;white.svg</title>
<g id="a_node12"><a xlink:href="src/images/Discord-logo-white.svg" xlink:title="Discord&#45;logo&#45;white.svg">
<path fill="#ffffcc" stroke="black" d="M366,-53.32C366,-53.32 268,-53.32 268,-53.32 265,-53.32 262,-50.32 262,-47.32 262,-47.32 262,-41.32 262,-41.32 262,-38.32 265,-35.32 268,-35.32 268,-35.32 366,-35.32 366,-35.32 369,-35.32 372,-38.32 372,-41.32 372,-41.32 372,-47.32 372,-47.32 372,-50.32 369,-53.32 366,-53.32"/>
<text text-anchor="start" x="270" y="-42.12" font-family="Helvetica,sans-Serif" font-size="9.00">Discord&#45;logo&#45;white.svg</text>
</a>
</g>
</g>
<!-- src/components/Header.js&#45;&gt;src/images/Discord&#45;logo&#45;white.svg -->
<g id="edge11" class="edge">
<title>src/components/Header.js&#45;&gt;src/images/Discord&#45;logo&#45;white.svg</title>
<path fill="none" stroke="#000000" stroke-width="2" stroke-opacity="0.200000" d="M219.3,-251.2C220.66,-215.76 227.36,-87.75 254,-59.32 254.88,-58.38 255.81,-57.49 256.78,-56.66"/>
<polygon fill="#000000" fill-opacity="0.200000" stroke="#000000" stroke-width="2" stroke-opacity="0.200000" points="258.33,-58.13 261.95,-52.91 255.86,-54.73 258.33,-58.13"/>
</g>
<!-- src/images/friends.svg -->
<g id="node13" class="node">
<title>src/images/friends.svg</title>
<g id="a_node13"><a xlink:href="src/images/friends.svg" xlink:title="friends.svg">
<path fill="#ffffcc" stroke="black" d="M341.5,-83.32C341.5,-83.32 292.5,-83.32 292.5,-83.32 289.5,-83.32 286.5,-80.32 286.5,-77.32 286.5,-77.32 286.5,-71.32 286.5,-71.32 286.5,-68.32 289.5,-65.32 292.5,-65.32 292.5,-65.32 341.5,-65.32 341.5,-65.32 344.5,-65.32 347.5,-68.32 347.5,-71.32 347.5,-71.32 347.5,-77.32 347.5,-77.32 347.5,-80.32 344.5,-83.32 341.5,-83.32"/>
<text text-anchor="start" x="294.5" y="-72.12" font-family="Helvetica,sans-Serif" font-size="9.00">friends.svg</text>
</a>
</g>
</g>
<!-- src/components/Hero.js&#45;&gt;src/images/friends.svg -->
<g id="edge12" class="edge">
<title>src/components/Hero.js&#45;&gt;src/images/friends.svg</title>
<path fill="none" stroke="#000000" stroke-width="2" stroke-opacity="0.200000" d="M240.58,-281.24C242.7,-279.56 244.59,-277.6 246,-275.32 256.87,-257.72 240.86,-105.3 254,-89.32 260.47,-81.46 270.28,-77.31 280.21,-75.22"/>
<polygon fill="#000000" fill-opacity="0.200000" stroke="#000000" stroke-width="2" stroke-opacity="0.200000" points="280.81,-77.24 286.37,-74.17 280.11,-73.1 280.81,-77.24"/>
</g>
<!-- src/images/hero&#45;discord&#45;1.svg -->
<g id="node14" class="node">
<title>src/images/hero&#45;discord&#45;1.svg</title>
<g id="a_node14"><a xlink:href="src/images/hero-discord-1.svg" xlink:title="hero&#45;discord&#45;1.svg">
<path fill="#ffffcc" stroke="black" d="M357.5,-113.32C357.5,-113.32 276.5,-113.32 276.5,-113.32 273.5,-113.32 270.5,-110.32 270.5,-107.32 270.5,-107.32 270.5,-101.32 270.5,-101.32 270.5,-98.32 273.5,-95.32 276.5,-95.32 276.5,-95.32 357.5,-95.32 357.5,-95.32 360.5,-95.32 363.5,-98.32 363.5,-101.32 363.5,-101.32 363.5,-107.32 363.5,-107.32 363.5,-110.32 360.5,-113.32 357.5,-113.32"/>
<text text-anchor="start" x="278.5" y="-102.12" font-family="Helvetica,sans-Serif" font-size="9.00">hero&#45;discord&#45;1.svg</text>
</a>
</g>
</g>
<!-- src/components/Hero.js&#45;&gt;src/images/hero&#45;discord&#45;1.svg -->
<g id="edge13" class="edge">
<title>src/components/Hero.js&#45;&gt;src/images/hero&#45;discord&#45;1.svg</title>
<path fill="none" stroke="#000000" stroke-width="2" stroke-opacity="0.200000" d="M240.56,-281.23C242.69,-279.55 244.58,-277.59 246,-275.32 255.18,-260.59 242.92,-132.68 254,-119.32 256.96,-115.74 260.62,-112.94 264.67,-110.74"/>
<polygon fill="#000000" fill-opacity="0.200000" stroke="#000000" stroke-width="2" stroke-opacity="0.200000" points="265.81,-112.53 270.39,-108.12 264.06,-108.71 265.81,-112.53"/>
</g>
<!-- src/components/Channel.js -->
<g id="node8" class="node">
<title>src/components/Channel.js</title>
<g id="a_node8"><a xlink:href="src/components/Channel.js" xlink:title="Channel.js">
<path fill="#ffffcc" stroke="black" d="M341.5,-299.32C341.5,-299.32 292.5,-299.32 292.5,-299.32 289.5,-299.32 286.5,-296.32 286.5,-293.32 286.5,-293.32 286.5,-287.32 286.5,-287.32 286.5,-284.32 289.5,-281.32 292.5,-281.32 292.5,-281.32 341.5,-281.32 341.5,-281.32 344.5,-281.32 347.5,-284.32 347.5,-287.32 347.5,-287.32 347.5,-293.32 347.5,-293.32 347.5,-296.32 344.5,-299.32 341.5,-299.32"/>
<text text-anchor="start" x="294.5" y="-288.12" font-family="Helvetica,sans-Serif" font-size="9.00">Channel.js</text>
</a>
</g>
</g>
<!-- src/components/Home.js&#45;&gt;src/components/Channel.js -->
<g id="edge18" class="edge">
<title>src/components/Home.js&#45;&gt;src/components/Channel.js</title>
<path fill="none" stroke="#000000" stroke-width="2" stroke-opacity="0.200000" d="M238.77,-311.17C243.68,-309.08 248.98,-306.99 254,-305.32 262.45,-302.51 271.71,-299.98 280.44,-297.84"/>
<polygon fill="#000000" fill-opacity="0.200000" stroke="#000000" stroke-width="2" stroke-opacity="0.200000" points="281.04,-299.86 286.38,-296.42 280.06,-295.77 281.04,-299.86"/>
</g>
<!-- src/components/Chat.js -->
<g id="node9" class="node">
<title>src/components/Chat.js</title>
<g id="a_node9"><a xlink:href="src/components/Chat.js" xlink:title="Chat.js">
<path fill="#ffffcc" stroke="black" d="M338,-269.32C338,-269.32 296,-269.32 296,-269.32 293,-269.32 290,-266.32 290,-263.32 290,-263.32 290,-257.32 290,-257.32 290,-254.32 293,-251.32 296,-251.32 296,-251.32 338,-251.32 338,-251.32 341,-251.32 344,-254.32 344,-257.32 344,-257.32 344,-263.32 344,-263.32 344,-266.32 341,-269.32 338,-269.32"/>
<text text-anchor="start" x="302.5" y="-258.12" font-family="Helvetica,sans-Serif" font-size="9.00">Chat.js</text>
</a>
</g>
</g>
<!-- src/components/Home.js&#45;&gt;src/components/Chat.js -->
<g id="edge19" class="edge">
<title>src/components/Home.js&#45;&gt;src/components/Chat.js</title>
<path fill="none" stroke="#000000" stroke-width="2" stroke-opacity="0.200000" d="M239.58,-311.31C241.99,-309.59 244.22,-307.6 246,-305.32 254.48,-294.44 244.13,-284.96 254,-275.32 261.88,-267.62 273,-263.64 283.65,-261.65"/>
<polygon fill="#000000" fill-opacity="0.200000" stroke="#000000" stroke-width="2" stroke-opacity="0.200000" points="284.22,-263.69 289.83,-260.7 283.58,-259.54 284.22,-263.69"/>
</g>
<!-- src/components/Home.js&#45;&gt;src/firebase.js -->
<g id="edge14" class="edge">
<title>src/components/Home.js&#45;&gt;src/firebase.js</title>
<path fill="none" stroke="#000000" stroke-width="2" stroke-opacity="0.200000" d="M240.12,-311.31C242.38,-309.61 244.43,-307.62 246,-305.32 261.15,-283.09 233.76,-263.04 254,-245.32 270.46,-230.91 411.33,-238.37 478.35,-242.8"/>
<polygon fill="#000000" fill-opacity="0.200000" stroke="#000000" stroke-width="2" stroke-opacity="0.200000" points="478.47,-244.92 484.59,-243.22 478.75,-240.72 478.47,-244.92"/>
</g>
<!-- src/images/face_discord.png -->
<g id="node15" class="node">
<title>src/images/face_discord.png</title>
<g id="a_node15"><a xlink:href="src/images/face_discord.png" xlink:title="face_discord.png">
<path fill="#ffffcc" stroke="black" d="M354.5,-203.32C354.5,-203.32 279.5,-203.32 279.5,-203.32 276.5,-203.32 273.5,-200.32 273.5,-197.32 273.5,-197.32 273.5,-191.32 273.5,-191.32 273.5,-188.32 276.5,-185.32 279.5,-185.32 279.5,-185.32 354.5,-185.32 354.5,-185.32 357.5,-185.32 360.5,-188.32 360.5,-191.32 360.5,-191.32 360.5,-197.32 360.5,-197.32 360.5,-200.32 357.5,-203.32 354.5,-203.32"/>
<text text-anchor="start" x="281.5" y="-192.12" font-family="Helvetica,sans-Serif" font-size="9.00">face_discord.png</text>
</a>
</g>
</g>
<!-- src/components/Home.js&#45;&gt;src/images/face_discord.png -->
<g id="edge15" class="edge">
<title>src/components/Home.js&#45;&gt;src/images/face_discord.png</title>
<path fill="none" stroke="#000000" stroke-width="2" stroke-opacity="0.200000" d="M240.49,-311.19C242.63,-309.52 244.55,-307.57 246,-305.32 257.84,-286.95 239.55,-223.71 254,-207.32 257.74,-203.08 262.48,-200.02 267.66,-197.83"/>
<polygon fill="#000000" fill-opacity="0.200000" stroke="#000000" stroke-width="2" stroke-opacity="0.200000" points="268.48,-199.77 273.44,-195.79 267.08,-195.81 268.48,-199.77"/>
</g>
<!-- src/images/server_icon_1.png -->
<g id="node16" class="node">
<title>src/images/server_icon_1.png</title>
<g id="a_node16"><a xlink:href="src/images/server_icon_1.png" xlink:title="server_icon_1.png">
<path fill="#ffffcc" stroke="black" d="M357.5,-173.32C357.5,-173.32 276.5,-173.32 276.5,-173.32 273.5,-173.32 270.5,-170.32 270.5,-167.32 270.5,-167.32 270.5,-161.32 270.5,-161.32 270.5,-158.32 273.5,-155.32 276.5,-155.32 276.5,-155.32 357.5,-155.32 357.5,-155.32 360.5,-155.32 363.5,-158.32 363.5,-161.32 363.5,-161.32 363.5,-167.32 363.5,-167.32 363.5,-170.32 360.5,-173.32 357.5,-173.32"/>
<text text-anchor="start" x="278.5" y="-162.12" font-family="Helvetica,sans-Serif" font-size="9.00">server_icon_1.png</text>
</a>
</g>
</g>
<!-- src/components/Home.js&#45;&gt;src/images/server_icon_1.png -->
<g id="edge16" class="edge">
<title>src/components/Home.js&#45;&gt;src/images/server_icon_1.png</title>
<path fill="none" stroke="#000000" stroke-width="2" stroke-opacity="0.200000" d="M240.53,-311.22C242.67,-309.54 244.57,-307.59 246,-305.32 260.99,-281.6 235.96,-200.81 254,-179.32 256.99,-175.76 260.66,-172.97 264.71,-170.78"/>
<polygon fill="#000000" fill-opacity="0.200000" stroke="#000000" stroke-width="2" stroke-opacity="0.200000" points="265.86,-172.57 270.44,-168.16 264.11,-168.75 265.86,-172.57"/>
</g>
<!-- src/images/server_icon_2.png -->
<g id="node17" class="node">
<title>src/images/server_icon_2.png</title>
<g id="a_node17"><a xlink:href="src/images/server_icon_2.png" xlink:title="server_icon_2.png">
<path fill="#ffffcc" stroke="black" d="M357.5,-143.32C357.5,-143.32 276.5,-143.32 276.5,-143.32 273.5,-143.32 270.5,-140.32 270.5,-137.32 270.5,-137.32 270.5,-131.32 270.5,-131.32 270.5,-128.32 273.5,-125.32 276.5,-125.32 276.5,-125.32 357.5,-125.32 357.5,-125.32 360.5,-125.32 363.5,-128.32 363.5,-131.32 363.5,-131.32 363.5,-137.32 363.5,-137.32 363.5,-140.32 360.5,-143.32 357.5,-143.32"/>
<text text-anchor="start" x="278.5" y="-132.12" font-family="Helvetica,sans-Serif" font-size="9.00">server_icon_2.png</text>
</a>
</g>
</g>
<!-- src/components/Home.js&#45;&gt;src/images/server_icon_2.png -->
<g id="edge17" class="edge">
<title>src/components/Home.js&#45;&gt;src/images/server_icon_2.png</title>
<path fill="none" stroke="#000000" stroke-width="2" stroke-opacity="0.200000" d="M240.56,-311.23C242.69,-309.55 244.58,-307.59 246,-305.32 255.18,-290.59 242.92,-162.68 254,-149.32 256.96,-145.74 260.62,-142.94 264.67,-140.74"/>
<polygon fill="#000000" fill-opacity="0.200000" stroke="#000000" stroke-width="2" stroke-opacity="0.200000" points="265.81,-142.53 270.39,-138.12 264.06,-138.71 265.81,-142.53"/>
</g>
<!-- src/components/ServerIcon.js -->
<g id="node18" class="node">
<title>src/components/ServerIcon.js</title>
<g id="a_node18"><a xlink:href="src/components/ServerIcon.js" xlink:title="ServerIcon.js">
<path fill="#ffffcc" stroke="black" d="M346,-329.32C346,-329.32 288,-329.32 288,-329.32 285,-329.32 282,-326.32 282,-323.32 282,-323.32 282,-317.32 282,-317.32 282,-314.32 285,-311.32 288,-311.32 288,-311.32 346,-311.32 346,-311.32 349,-311.32 352,-314.32 352,-317.32 352,-317.32 352,-323.32 352,-323.32 352,-326.32 349,-329.32 346,-329.32"/>
<text text-anchor="start" x="290" y="-318.12" font-family="Helvetica,sans-Serif" font-size="9.00">ServerIcon.js</text>
</a>
</g>
</g>
<!-- src/components/Home.js&#45;&gt;src/components/ServerIcon.js -->
<g id="edge20" class="edge">
<title>src/components/Home.js&#45;&gt;src/components/ServerIcon.js</title>
<path fill="none" stroke="#000000" stroke-width="2" stroke-opacity="0.200000" d="M245.25,-320.32C254.54,-320.32 265.23,-320.32 275.43,-320.32"/>
<polygon fill="#000000" fill-opacity="0.200000" stroke="#000000" stroke-width="2" stroke-opacity="0.200000" points="275.7,-322.42 281.7,-320.32 275.7,-318.22 275.7,-322.42"/>
</g>
<!-- src/app/store.js -->
<g id="node6" class="node">
<title>src/app/store.js</title>
<g id="a_node6"><a xlink:href="src/app/store.js" xlink:title="store.js">
<path fill="#ffffcc" stroke="black" d="M149.5,-366.32C149.5,-366.32 107.5,-366.32 107.5,-366.32 104.5,-366.32 101.5,-363.32 101.5,-360.32 101.5,-360.32 101.5,-354.32 101.5,-354.32 101.5,-351.32 104.5,-348.32 107.5,-348.32 107.5,-348.32 149.5,-348.32 149.5,-348.32 152.5,-348.32 155.5,-351.32 155.5,-354.32 155.5,-354.32 155.5,-360.32 155.5,-360.32 155.5,-363.32 152.5,-366.32 149.5,-366.32"/>
<text text-anchor="start" x="113.5" y="-355.12" font-family="Helvetica,sans-Serif" font-size="9.00">store.js</text>
</a>
</g>
</g>
<!-- src/features/channelSlice.js -->
<g id="node7" class="node">
<title>src/features/channelSlice.js</title>
<g id="a_node7"><a xlink:href="src/features/channelSlice.js" xlink:title="channelSlice.js">
<path fill="#ffffcc" stroke="black" d="M548,-312.32C548,-312.32 481,-312.32 481,-312.32 478,-312.32 475,-309.32 475,-306.32 475,-306.32 475,-300.32 475,-300.32 475,-297.32 478,-294.32 481,-294.32 481,-294.32 548,-294.32 548,-294.32 551,-294.32 554,-297.32 554,-300.32 554,-300.32 554,-306.32 554,-306.32 554,-309.32 551,-312.32 548,-312.32"/>
<text text-anchor="start" x="483" y="-301.12" font-family="Helvetica,sans-Serif" font-size="9.00">channelSlice.js</text>
</a>
</g>
</g>
<!-- src/app/store.js&#45;&gt;src/features/channelSlice.js -->
<g id="edge5" class="edge">
<title>src/app/store.js&#45;&gt;src/features/channelSlice.js</title>
<path fill="none" stroke="#000000" stroke-width="2" stroke-opacity="0.200000" d="M140.32,-366.4C150.39,-374.2 166.17,-384.88 182,-389.32 209.39,-397.01 217.63,-391.37 246,-389.32 341.41,-382.41 373.59,-401.41 459,-358.32 477.69,-348.89 493.81,-330.58 503.57,-317.68"/>
<polygon fill="#000000" fill-opacity="0.200000" stroke="#000000" stroke-width="2" stroke-opacity="0.200000" points="505.5,-318.6 507.35,-312.52 502.11,-316.12 505.5,-318.6"/>
</g>
<!-- src/components/Channel.js&#45;&gt;src/features/channelSlice.js -->
<g id="edge6" class="edge">
<title>src/components/Channel.js&#45;&gt;src/features/channelSlice.js</title>
<path fill="none" stroke="#000000" stroke-width="2" stroke-opacity="0.200000" d="M347.54,-295.33C360,-297.23 374.66,-299.21 388,-300.32 414.72,-302.54 444.73,-303.32 468.71,-303.53"/>
<polygon fill="#000000" fill-opacity="0.200000" stroke="#000000" stroke-width="2" stroke-opacity="0.200000" points="468.97,-305.63 474.99,-303.57 469,-301.43 468.97,-305.63"/>
</g>
<!-- src/components/Chat.js&#45;&gt;src/features/channelSlice.js -->
<g id="edge7" class="edge">
<title>src/components/Chat.js&#45;&gt;src/features/channelSlice.js</title>
<path fill="none" stroke="#000000" stroke-width="2" stroke-opacity="0.200000" d="M344.13,-261.95C356.04,-263.8 369.73,-267.6 380,-275.32 385.73,-279.63 382.01,-285.38 388,-289.32 394.77,-293.77 435.56,-297.75 468.82,-300.31"/>
<polygon fill="#000000" fill-opacity="0.200000" stroke="#000000" stroke-width="2" stroke-opacity="0.200000" points="468.8,-302.42 474.94,-300.78 469.11,-298.23 468.8,-302.42"/>
</g>
<!-- src/components/Chat.js&#45;&gt;src/firebase.js -->
<g id="edge8" class="edge">
<title>src/components/Chat.js&#45;&gt;src/firebase.js</title>
<path fill="none" stroke="#000000" stroke-width="2" stroke-opacity="0.200000" d="M344.37,-258.3C378.95,-255.64 439.74,-250.98 478.25,-248.02"/>
<polygon fill="#000000" fill-opacity="0.200000" stroke="#000000" stroke-width="2" stroke-opacity="0.200000" points="478.88,-250.08 484.7,-247.53 478.55,-245.89 478.88,-250.08"/>
</g>
<!-- src/components/Message.js -->
<g id="node11" class="node">
<title>src/components/Message.js</title>
<g id="a_node11"><a xlink:href="src/components/Message.js" xlink:title="Message.js">
<path fill="#ffffcc" stroke="black" d="M445,-283.32C445,-283.32 394,-283.32 394,-283.32 391,-283.32 388,-280.32 388,-277.32 388,-277.32 388,-271.32 388,-271.32 388,-268.32 391,-265.32 394,-265.32 394,-265.32 445,-265.32 445,-265.32 448,-265.32 451,-268.32 451,-271.32 451,-271.32 451,-277.32 451,-277.32 451,-280.32 448,-283.32 445,-283.32"/>
<text text-anchor="start" x="396" y="-272.12" font-family="Helvetica,sans-Serif" font-size="9.00">Message.js</text>
</a>
</g>
</g>
<!-- src/components/Chat.js&#45;&gt;src/components/Message.js -->
<g id="edge9" class="edge">
<title>src/components/Chat.js&#45;&gt;src/components/Message.js</title>
<path fill="none" stroke="#000000" stroke-width="2" stroke-opacity="0.200000" d="M344.14,-263.96C355.64,-265.56 369.34,-267.47 381.83,-269.21"/>
<polygon fill="#000000" fill-opacity="0.200000" stroke="#000000" stroke-width="2" stroke-opacity="0.200000" points="381.62,-271.3 387.85,-270.05 382.2,-267.14 381.62,-271.3"/>
</g>
<!-- src/components/Message.js&#45;&gt;src/features/channelSlice.js -->
<g id="edge21" class="edge">
<title>src/components/Message.js&#45;&gt;src/features/channelSlice.js</title>
<path fill="none" stroke="#000000" stroke-width="2" stroke-opacity="0.200000" d="M445.99,-283.39C452.79,-285.73 460.15,-288.19 467,-290.32 469.39,-291.06 471.85,-291.81 474.33,-292.55"/>
<polygon fill="#000000" fill-opacity="0.200000" stroke="#000000" stroke-width="2" stroke-opacity="0.200000" points="473.81,-294.58 480.16,-294.25 474.99,-290.55 473.81,-294.58"/>
</g>
<!-- src/components/Message.js&#45;&gt;src/firebase.js -->
<g id="edge22" class="edge">
<title>src/components/Message.js&#45;&gt;src/firebase.js</title>
<path fill="none" stroke="#000000" stroke-width="2" stroke-opacity="0.200000" d="M449.42,-265.3C458.78,-262.38 469.25,-259.12 478.98,-256.08"/>
<polygon fill="#000000" fill-opacity="0.200000" stroke="#000000" stroke-width="2" stroke-opacity="0.200000" points="479.82,-258.02 484.92,-254.23 478.57,-254.01 479.82,-258.02"/>
</g>
<!-- src/index.css -->
<g id="node19" class="node">
<title>src/index.css</title>
<g id="a_node19"><a xlink:href="src/index.css" xlink:title="index.css">
<path fill="#ffffcc" stroke="black" d="M150,-269.32C150,-269.32 107,-269.32 107,-269.32 104,-269.32 101,-266.32 101,-263.32 101,-263.32 101,-257.32 101,-257.32 101,-254.32 104,-251.32 107,-251.32 107,-251.32 150,-251.32 150,-251.32 153,-251.32 156,-254.32 156,-257.32 156,-257.32 156,-263.32 156,-263.32 156,-266.32 153,-269.32 150,-269.32"/>
<text text-anchor="start" x="109" y="-258.12" font-family="Helvetica,sans-Serif" font-size="9.00">index.css</text>
</a>
</g>
</g>
<!-- src/index.js -->
<g id="node20" class="node">
<title>src/index.js</title>
<g id="a_node20"><a xlink:href="src/index.js" xlink:title="index.js">
<path fill="#ffffcc" stroke="black" d="M64,-314.32C64,-314.32 22,-314.32 22,-314.32 19,-314.32 16,-311.32 16,-308.32 16,-308.32 16,-302.32 16,-302.32 16,-299.32 19,-296.32 22,-296.32 22,-296.32 64,-296.32 64,-296.32 67,-296.32 70,-299.32 70,-302.32 70,-302.32 70,-308.32 70,-308.32 70,-311.32 67,-314.32 64,-314.32"/>
<text text-anchor="start" x="27" y="-303.12" font-family="Helvetica,sans-Serif" font-size="9.00">index.js</text>
</a>
</g>
</g>
<!-- src/index.js&#45;&gt;src/App.js -->
<g id="edge23" class="edge">
<title>src/index.js&#45;&gt;src/App.js</title>
<path fill="none" stroke="#000000" stroke-width="2" stroke-opacity="0.200000" d="M70.42,-310.07C78.26,-311.47 86.94,-313.03 95.12,-314.5"/>
<polygon fill="#000000" fill-opacity="0.200000" stroke="#000000" stroke-width="2" stroke-opacity="0.200000" points="94.98,-316.61 101.25,-315.6 95.72,-312.48 94.98,-316.61"/>
</g>
<!-- src/index.js&#45;&gt;src/app/store.js -->
<g id="edge24" class="edge">
<title>src/index.js&#45;&gt;src/app/store.js</title>
<path fill="none" stroke="#000000" stroke-width="2" stroke-opacity="0.200000" d="M50.78,-314.36C57.88,-323.23 69.82,-336.51 83,-344.32 86.81,-346.58 91.03,-348.46 95.32,-350.03"/>
<polygon fill="#000000" fill-opacity="0.200000" stroke="#000000" stroke-width="2" stroke-opacity="0.200000" points="94.82,-352.08 101.18,-351.99 96.15,-348.1 94.82,-352.08"/>
</g>
<!-- src/index.js&#45;&gt;src/index.css -->
<g id="edge25" class="edge">
<title>src/index.js&#45;&gt;src/index.css</title>
<path fill="none" stroke="#000000" stroke-width="2" stroke-opacity="0.200000" d="M53.95,-296.17C61.47,-289.64 72.3,-281.03 83,-275.32 86.67,-273.36 90.65,-271.58 94.67,-270"/>
<polygon fill="#000000" fill-opacity="0.200000" stroke="#000000" stroke-width="2" stroke-opacity="0.200000" points="95.65,-271.87 100.54,-267.81 94.19,-267.93 95.65,-271.87"/>
</g>
<!-- src/reportWebVitals.js -->
<g id="node21" class="node">
<title>src/reportWebVitals.js</title>
<g id="a_node21"><a xlink:href="src/reportWebVitals.js" xlink:title="reportWebVitals.js">
<path fill="#ffffcc" stroke="black" d="M168,-299.32C168,-299.32 89,-299.32 89,-299.32 86,-299.32 83,-296.32 83,-293.32 83,-293.32 83,-287.32 83,-287.32 83,-284.32 86,-281.32 89,-281.32 89,-281.32 168,-281.32 168,-281.32 171,-281.32 174,-284.32 174,-287.32 174,-287.32 174,-293.32 174,-293.32 174,-296.32 171,-299.32 168,-299.32"/>
<text text-anchor="start" x="91" y="-288.12" font-family="Helvetica,sans-Serif" font-size="9.00">reportWebVitals.js</text>
</a>
</g>
</g>
<!-- src/index.js&#45;&gt;src/reportWebVitals.js -->
<g id="edge26" class="edge">
<title>src/index.js&#45;&gt;src/reportWebVitals.js</title>
<path fill="none" stroke="#000000" stroke-width="2" stroke-opacity="0.200000" d="M70.42,-300.57C72.55,-300.19 74.75,-299.8 76.98,-299.4"/>
<polygon fill="#000000" fill-opacity="0.200000" stroke="#000000" stroke-width="2" stroke-opacity="0.200000" points="77.4,-301.45 82.94,-298.32 76.66,-297.32 77.4,-301.45"/>
</g>
</g>
</svg>
